<svg xmlns="http://www.w3.org/2000/svg" viewBox="0 0 711.88 711.76"><defs><style>.cls-1{fill:#fca653;}</style></defs><title>资源 2</title><g id="图层_2" data-name="图层 2"><g id="图层_1-2" data-name="图层 1"><path class="cls-1" d="M355.92,0h-.1a1.5,1.5,0,0,0,0,3h.1a1.5,1.5,0,0,0,0-3ZM327.73,1.1h-.22a1.5,1.5,0,0,0,.12,3h.22a1.5,1.5,0,0,0-.12-3Zm-28,3.33-.24,0-.1,0a1.5,1.5,0,0,0,.23,3l.24,0h0l.09,0a1.5,1.5,0,0,0-.23-3ZM272.05,10a1.45,1.45,0,0,0-.35,0l-.1,0A1.5,1.5,0,0,0,272,13a1.34,1.34,0,0,0,.35,0l.1,0h0a1.5,1.5,0,0,0-.36-3Zm-27.12,7.74a1.5,1.5,0,0,0-.47.08l-.1,0a1.5,1.5,0,0,0,.47,2.93,1.55,1.55,0,0,0,.47-.08l.09,0a1.5,1.5,0,0,0-.46-2.93Zm-26.43,9.9a1.51,1.51,0,0,0-.58.12l-.09,0a1.49,1.49,0,0,0-.8,2,1.49,1.49,0,0,0,2,.8h0l.05,0h0a1.5,1.5,0,0,0-.58-2.88ZM193,39.6a1.52,1.52,0,0,0-.69.16l-.09.05a1.5,1.5,0,0,0,.69,2.83,1.44,1.44,0,0,0,.69-.17l0,0h.05A1.5,1.5,0,0,0,193,39.6Zm-24.51,14a1.42,1.42,0,0,0-.79.23l-.09.05a1.51,1.51,0,0,0-.48,2.07,1.52,1.52,0,0,0,2.07.48l.08-.06a1.5,1.5,0,0,0-.79-2.77ZM145.13,69.45a1.49,1.49,0,0,0-.89.3l-.08.06a1.5,1.5,0,0,0,.89,2.7,1.53,1.53,0,0,0,.89-.29l.08-.06a1.5,1.5,0,0,0-.89-2.71Zm-22,17.68a1.46,1.46,0,0,0-1,.37l-.08.06a1.5,1.5,0,0,0-.14,2.12,1.48,1.48,0,0,0,1.13.51,1.52,1.52,0,0,0,1-.36l.09-.08a1.5,1.5,0,0,0-1-2.62Zm-20.52,19.36a1.52,1.52,0,0,0-1.07.45l-.07.07a1.5,1.5,0,0,0,1.07,2.55,1.52,1.52,0,0,0,1.08-.45l.07-.07a1.49,1.49,0,0,0,0-2.12,1.48,1.48,0,0,0-1-.43ZM83.7,127.41a1.47,1.47,0,0,0-1.15.54l-.07.08a1.5,1.5,0,0,0,1.15,2.46,1.54,1.54,0,0,0,1.16-.54l0,0,0,0h0a1.49,1.49,0,0,0-.19-2.11,1.46,1.46,0,0,0-1-.35ZM66.49,149.76a1.5,1.5,0,0,0-1.23.64l-.06.08a1.51,1.51,0,0,0,.36,2.09,1.56,1.56,0,0,0,.87.27,1.49,1.49,0,0,0,1.22-.63l.06-.08a1.49,1.49,0,0,0-.36-2.09,1.45,1.45,0,0,0-.86-.28ZM51.1,173.41a1.5,1.5,0,0,0-1.29.73l-.05.09a1.51,1.51,0,0,0,.52,2.06,1.54,1.54,0,0,0,.77.21,1.49,1.49,0,0,0,1.29-.74l0,0,0-.07a1.51,1.51,0,0,0-.53-2,1.54,1.54,0,0,0-.77-.21Zm-13.45,24.8a1.5,1.5,0,0,0-1.35.84l0,.09a1.49,1.49,0,0,0,.68,2,1.43,1.43,0,0,0,.66.16,1.5,1.5,0,0,0,1.35-.84l0-.09a1.5,1.5,0,0,0-.68-2,1.55,1.55,0,0,0-.66-.15ZM26.22,224a1.5,1.5,0,0,0-1.4.95l0,.09a1.51,1.51,0,0,0,.85,2,1.51,1.51,0,0,0,1.94-.84l0-.1a1.49,1.49,0,0,0-.84-1.94,1.35,1.35,0,0,0-.55-.11Zm-9.34,26.63a1.49,1.49,0,0,0-1.43,1.06l0,.09a1.51,1.51,0,0,0,1,1.88,1.61,1.61,0,0,0,.44.06,1.49,1.49,0,0,0,1.43-1.06l0-.09a1.5,1.5,0,0,0-1-1.88,1.61,1.61,0,0,0-.44-.06ZM9.72,277.91a1.51,1.51,0,0,0-1.47,1.18l0,.1A1.5,1.5,0,0,0,9.37,281l.33,0a1.48,1.48,0,0,0,1.46-1.18l0-.08h0A1.5,1.5,0,0,0,10,278a1.87,1.87,0,0,0-.32,0Zm-5,27.77A1.5,1.5,0,0,0,3.27,307v.1a1.49,1.49,0,0,0,1.28,1.69h.2a1.5,1.5,0,0,0,1.49-1.29v-.11A1.49,1.49,0,0,0,5,305.7l-.21,0ZM2,333.76a1.51,1.51,0,0,0-1.5,1.42v.1a1.49,1.49,0,0,0,1.41,1.58H2a1.49,1.49,0,0,0,1.5-1.41v-.1a1.5,1.5,0,0,0-1.41-1.58ZM1.5,362h0A1.5,1.5,0,0,0,0,363.51v.1a1.5,1.5,0,0,0,1.5,1.47h0A1.5,1.5,0,0,0,3,363.55v-.09H3A1.5,1.5,0,0,0,1.5,362Zm1.69,28.16H3a1.51,1.51,0,0,0-1.34,1.65v.1a1.5,1.5,0,0,0,1.49,1.35h.15a1.49,1.49,0,0,0,1.34-1.64v-.1a1.49,1.49,0,0,0-1.49-1.35Zm3.92,27.94-.27,0a1.51,1.51,0,0,0-1.21,1.75l0,.1a1.5,1.5,0,0,0,1.47,1.23,1.24,1.24,0,0,0,.27,0,1.49,1.49,0,0,0,1.21-1.74l0-.1a1.5,1.5,0,0,0-1.47-1.23Zm6.13,27.54a1.28,1.28,0,0,0-.38.05,1.5,1.5,0,0,0-1.07,1.83l0,.1a1.49,1.49,0,0,0,1.45,1.11,1.28,1.28,0,0,0,.38,0,1.5,1.5,0,0,0,1.07-1.83h0l0-.09a1.49,1.49,0,0,0-1.45-1.11Zm8.32,26.95a1.51,1.51,0,0,0-.5.09,1.49,1.49,0,0,0-.91,1.91l0,.1a1.52,1.52,0,0,0,1.42,1,1.41,1.41,0,0,0,.49-.09,1.49,1.49,0,0,0,.92-1.91l0-.05,0-.06a1.49,1.49,0,0,0-1.41-1ZM32,498.78a1.49,1.49,0,0,0-1.36,2.11l0,.09a1.5,1.5,0,0,0,2,.76,1.51,1.51,0,0,0,.76-2h0l0-.08a1.51,1.51,0,0,0-1.38-.89Zm12.52,25.28a1.46,1.46,0,0,0-.72.19,1.5,1.5,0,0,0-.6,2l0,.09a1.5,1.5,0,0,0,1.32.78,1.57,1.57,0,0,0,.72-.18,1.51,1.51,0,0,0,.59-2l0-.06v0a1.53,1.53,0,0,0-1.32-.78ZM59,548.27a1.46,1.46,0,0,0-.82.25,1.49,1.49,0,0,0-.44,2.07l.06.09a1.51,1.51,0,0,0,1.26.68,1.48,1.48,0,0,0,.82-.25,1.51,1.51,0,0,0,.43-2.08h0l0,0,0,0a1.49,1.49,0,0,0-1.25-.68Zm16.36,23a1.43,1.43,0,0,0-.91.32,1.49,1.49,0,0,0-.27,2.1l.06.08a1.5,1.5,0,0,0,2.38-1.83l0,0-.05-.06a1.5,1.5,0,0,0-1.19-.58Zm18.14,21.61a1.5,1.5,0,0,0-1.11,2.51l.07.08a1.5,1.5,0,0,0,2.22-2l-.06-.06v0a1.52,1.52,0,0,0-1.11-.49ZM113.31,613a1.5,1.5,0,0,0-1,2.6l.07.07a1.5,1.5,0,0,0,2.06-2.19l0,0,0,0a1.51,1.51,0,0,0-1-.41Zm21.31,18.49a1.48,1.48,0,0,0-1.17.56,1.51,1.51,0,0,0,.23,2.11l.08.06a1.52,1.52,0,0,0,.94.33,1.5,1.5,0,0,0,.93-2.67l0,0,0,0v0a1.51,1.51,0,0,0-.94-.32Zm22.71,16.73a1.5,1.5,0,0,0-.84,2.75l.08,0a1.46,1.46,0,0,0,.84.26,1.5,1.5,0,0,0,.84-2.74l-.08-.06a1.54,1.54,0,0,0-.84-.26Zm24,14.89a1.5,1.5,0,0,0-.74,2.8l.08,0a1.55,1.55,0,0,0,.74.2,1.5,1.5,0,0,0,.74-2.81l-.08-.05a1.54,1.54,0,0,0-.74-.19ZM206.38,676a1.53,1.53,0,0,0-1.37.87,1.5,1.5,0,0,0,.73,2l.09,0a1.6,1.6,0,0,0,.63.14,1.5,1.5,0,0,0,.64-2.86l-.08,0h0a1.6,1.6,0,0,0-.63-.14Zm26,10.89a1.5,1.5,0,0,0-.52,2.9l.09,0a1.64,1.64,0,0,0,.53.09A1.5,1.5,0,0,0,233,687l-.09,0a1.64,1.64,0,0,0-.53-.09Zm26.82,8.76a1.5,1.5,0,0,0-.41,2.94l.1,0a1.45,1.45,0,0,0,.41.06,1.5,1.5,0,0,0,.42-2.94l-.12,0a1.83,1.83,0,0,0-.4-.05Zm27.44,6.59a1.5,1.5,0,0,0-.29,3l.09,0,.3,0a1.5,1.5,0,0,0,.29-3h-.11a1.37,1.37,0,0,0-.28,0Zm27.86,4.37a1.5,1.5,0,0,0-.17,3h.28a1.5,1.5,0,0,0,.17-3h-.28Zm28.13,2.15a1.5,1.5,0,0,0,0,3h.15a1.5,1.5,0,0,0,.06-3h-.16Zm28.33-.07h-.17a1.5,1.5,0,0,0,.06,3H371a1.5,1.5,0,0,0-.06-3Zm28.11-2.29h-.29a1.5,1.5,0,0,0,.19,3h.28a1.5,1.5,0,0,0-.18-3Zm27.85-4.52a1.43,1.43,0,0,0-.29,0h-.11a1.5,1.5,0,0,0,.3,3l.3,0,.1,0a1.5,1.5,0,0,0-.3-3Zm27.4-6.72a1.51,1.51,0,0,0-.41.06l-.11,0a1.5,1.5,0,0,0,.42,2.94,1.52,1.52,0,0,0,.42-.06l.1,0a1.5,1.5,0,0,0-.42-2.94Zm26.77-8.9a1.58,1.58,0,0,0-.52.09l0,0-.06,0h0a1.5,1.5,0,0,0,.53,2.91,1.42,1.42,0,0,0,.53-.1l.09,0a1.5,1.5,0,0,0-.53-2.9Zm26-11a1.42,1.42,0,0,0-.64.14l0,0h-.05a1.5,1.5,0,0,0,.64,2.86,1.64,1.64,0,0,0,.64-.14l.09,0a1.5,1.5,0,0,0-.64-2.85Zm25-13.06a1.52,1.52,0,0,0-.74.2l0,0-.05,0a1.5,1.5,0,0,0,.74,2.8,1.46,1.46,0,0,0,.75-.2l.09,0a1.5,1.5,0,0,0-.75-2.8Zm23.89-15a1.49,1.49,0,0,0-.85.26l0,0-.05,0a1.51,1.51,0,0,0,.86,2.74,1.45,1.45,0,0,0,.84-.27l.09-.05a1.5,1.5,0,0,0-.85-2.74Zm22.63-16.85a1.52,1.52,0,0,0-1,.33l0,0,0,0a1.5,1.5,0,0,0,.94,2.67,1.52,1.52,0,0,0,.94-.33l.08-.07a1.5,1.5,0,0,0-.94-2.66Zm21.22-18.59a1.47,1.47,0,0,0-1,.41l-.06.06h0a1.5,1.5,0,0,0,1,2.59,1.52,1.52,0,0,0,1-.41l.07-.07a1.5,1.5,0,0,0-1-2.59Zm19.68-20.21a1.48,1.48,0,0,0-1.11.5l-.07.07h0a1.51,1.51,0,0,0,.11,2.12,1.52,1.52,0,0,0,2.12-.11l.07-.08a1.51,1.51,0,0,0-.11-2.12,1.55,1.55,0,0,0-1-.38Zm18-21.7a1.48,1.48,0,0,0-1.19.59l-.06.07a1.5,1.5,0,0,0,.28,2.11,1.47,1.47,0,0,0,.91.31,1.52,1.52,0,0,0,1.19-.59l.06-.08a1.5,1.5,0,0,0-.28-2.1,1.47,1.47,0,0,0-.91-.31Zm16.25-23.06a1.51,1.51,0,0,0-1.26.68l0,.08a1.5,1.5,0,0,0,1.25,2.32,1.47,1.47,0,0,0,1.26-.69l.06-.08a1.49,1.49,0,0,0-.45-2.07,1.42,1.42,0,0,0-.81-.24Zm14.37-24.28a1.49,1.49,0,0,0-1.32.78l0,.08,0,0a1.5,1.5,0,0,0,.62,2,1.4,1.4,0,0,0,.71.19,1.51,1.51,0,0,0,1.32-.79l0-.09a1.5,1.5,0,0,0-.61-2,1.42,1.42,0,0,0-.71-.18Zm12.38-25.35a1.5,1.5,0,0,0-1.37.89v0l0,.07a1.49,1.49,0,0,0,.77,2,1.44,1.44,0,0,0,.6.13,1.5,1.5,0,0,0,1.38-.9l0-.09a1.51,1.51,0,0,0-.77-2,1.62,1.62,0,0,0-.61-.12Zm10.32-26.26a1.5,1.5,0,0,0-1.41,1l0,0V472a1.5,1.5,0,0,0,.93,1.9,1.41,1.41,0,0,0,.49.09,1.51,1.51,0,0,0,1.42-1l0-.1a1.51,1.51,0,0,0-.92-1.91,1.74,1.74,0,0,0-.5-.08Zm8.19-27A1.52,1.52,0,0,0,697.6,445v.1a1.5,1.5,0,0,0,1.07,1.83,1.73,1.73,0,0,0,.38.05,1.5,1.5,0,0,0,1.45-1.12l0-.1a1.5,1.5,0,0,0-1.08-1.83,1.57,1.57,0,0,0-.37-.05Zm6-27.57a1.5,1.5,0,0,0-1.47,1.23v.11a1.5,1.5,0,0,0,1.21,1.74l.27,0a1.5,1.5,0,0,0,1.47-1.24l0-.1a1.51,1.51,0,0,0-1.22-1.74l-.26,0Zm3.77-28a1.51,1.51,0,0,0-1.49,1.36v.11a1.51,1.51,0,0,0,1.36,1.63h.14a1.5,1.5,0,0,0,1.49-1.36V390a1.5,1.5,0,0,0-1.35-1.63Zm1.56-28.16a1.5,1.5,0,0,0-1.5,1.46v.11a1.5,1.5,0,0,0,1.47,1.53h0a1.51,1.51,0,0,0,1.5-1.48v-.1a1.5,1.5,0,0,0-1.48-1.52ZM709.72,332h-.09a1.52,1.52,0,0,0-1.41,1.6v.1a1.5,1.5,0,0,0,1.49,1.4h.1a1.49,1.49,0,0,0,1.4-1.59v-.1a1.5,1.5,0,0,0-1.5-1.41Zm-2.88-28.06h-.21a1.5,1.5,0,0,0-1.27,1.7v.1a1.5,1.5,0,0,0,1.48,1.29l.22,0a1.49,1.49,0,0,0,1.27-1.69v-.1a1.51,1.51,0,0,0-1.49-1.29Zm-5.1-27.75a1.86,1.86,0,0,0-.33,0,1.49,1.49,0,0,0-1.13,1.79v0l0,.08a1.5,1.5,0,0,0,1.46,1.17,1.24,1.24,0,0,0,.33,0,1.5,1.5,0,0,0,1.14-1.79l0-.1a1.5,1.5,0,0,0-1.46-1.17Zm-7.31-27.25a1.39,1.39,0,0,0-.44.07,1.5,1.5,0,0,0-1,1.87l0,0V251a1.51,1.51,0,0,0,1.43,1.06,1.76,1.76,0,0,0,.45-.07,1.51,1.51,0,0,0,1-1.88l0-.1a1.51,1.51,0,0,0-1.44-1.05ZM685,222.34a1.55,1.55,0,0,0-.56.11,1.5,1.5,0,0,0-.83,2l0,.06,0,0a1.52,1.52,0,0,0,1.39.93,1.64,1.64,0,0,0,.56-.11,1.5,1.5,0,0,0,.83-2l0-.1a1.5,1.5,0,0,0-1.39-.94Zm-11.56-25.73a1.44,1.44,0,0,0-.67.16,1.5,1.5,0,0,0-.68,2l0,.06,0,0a1.5,1.5,0,0,0,1.34.83,1.44,1.44,0,0,0,.67-.16,1.5,1.5,0,0,0,.67-2l0-.09a1.49,1.49,0,0,0-1.34-.83Zm-13.58-24.73a1.55,1.55,0,0,0-.78.21,1.5,1.5,0,0,0-.51,2.06l.05.09a1.5,1.5,0,0,0,1.29.73,1.46,1.46,0,0,0,.77-.22,1.5,1.5,0,0,0,.51-2.06l0-.08a1.5,1.5,0,0,0-1.28-.73Zm-15.51-23.57a1.48,1.48,0,0,0-.87.28,1.5,1.5,0,0,0-.35,2.09l.07.09a1.48,1.48,0,0,0,1.21.62A1.49,1.49,0,0,0,645.6,149l-.06-.08a1.49,1.49,0,0,0-1.22-.63ZM627,126a1.51,1.51,0,0,0-1.15,2.47l.07.08a1.49,1.49,0,0,0,1.15.53,1.51,1.51,0,0,0,1-.35,1.5,1.5,0,0,0,.18-2.12l-.06-.07A1.48,1.48,0,0,0,627,126Zm-19-20.82a1.5,1.5,0,0,0-1.07,2.55l.08.08a1.51,1.51,0,0,0,1.06.44,1.51,1.51,0,0,0,1.07-2.56l-.07-.07a1.49,1.49,0,0,0-1.07-.44ZM587.35,86a1.45,1.45,0,0,0-1.13.52,1.5,1.5,0,0,0,.15,2.11l.08.07a1.5,1.5,0,0,0,1,.36,1.45,1.45,0,0,0,1.13-.52,1.48,1.48,0,0,0-.15-2.11l-.08-.07a1.5,1.5,0,0,0-1-.36ZM565.28,68.39a1.48,1.48,0,0,0-1.21.62,1.49,1.49,0,0,0,.32,2.09l.09.06a1.43,1.43,0,0,0,.88.29,1.5,1.5,0,0,0,.89-2.71l-.09-.06a1.5,1.5,0,0,0-.88-.29Zm-23.4-15.76a1.5,1.5,0,0,0-.79,2.78l.09.05a1.46,1.46,0,0,0,.78.22,1.5,1.5,0,0,0,.79-2.77l-.08-.06a1.52,1.52,0,0,0-.79-.22ZM517.3,38.78a1.5,1.5,0,0,0-.69,2.83l.11,0a1.44,1.44,0,0,0,.67.16,1.49,1.49,0,0,0,.68-2.83l-.08-.05a1.55,1.55,0,0,0-.69-.16ZM491.7,26.93a1.5,1.5,0,0,0-.58,2.89l.06,0h0a1.51,1.51,0,0,0,.58.12,1.5,1.5,0,0,0,.57-2.89l-.09,0a1.46,1.46,0,0,0-.57-.12Zm-26.48-9.76a1.5,1.5,0,0,0-.47,2.92l.06,0,.05,0a1.47,1.47,0,0,0,.46.07,1.5,1.5,0,0,0,.46-2.92l-.09,0a1.53,1.53,0,0,0-.47-.07ZM438.06,9.56a1.5,1.5,0,0,0-.36,3h0l.08,0a2.09,2.09,0,0,0,.35,0,1.5,1.5,0,0,0,.34-3l-.1,0a2,2,0,0,0-.34,0ZM410.37,4.15a1.5,1.5,0,0,0-.23,3h.1a.9.9,0,0,0,.23,0,1.5,1.5,0,0,0,.23-3l-.1,0-.23,0ZM382.33,1a1.5,1.5,0,0,0-.12,3h.22a1.5,1.5,0,0,0,.11-3h-.21Z"/></g></g></svg>