<svg xmlns="http://www.w3.org/2000/svg" width="99.166" height="49.576" viewBox="0 0 99.166 49.576"><g transform="translate(-898.49 -237.659)"><path d="M948.073,283.659a240.293,240.293,0,0,0-41.323,3.576l-8.26-45.26a287.027,287.027,0,0,1,99.165,0l-8.26,45.26A240.288,240.288,0,0,0,948.073,283.659Z" fill="#0ba4c6" opacity="0"/><path d="M988.59,286.08l7.9-43.294a286.078,286.078,0,0,0-96.835,0l7.9,43.294a241.639,241.639,0,0,1,81.033,0m.806,1.154a240.6,240.6,0,0,0-82.645,0l-8.26-45.26a287.027,287.027,0,0,1,99.165,0Z" fill="#0ba4c6"/></g></svg>