<svg xmlns="http://www.w3.org/2000/svg" width="712.11" height="712.11" viewBox="0 0 712.11 712.11"><g transform="matrix(1, 0.017, -0.017, 1, -582.501, -180.986)"><g transform="translate(597.786 170.58)" fill="none" stroke="rgba(11,164,198,0)" stroke-width="1"><circle cx="350" cy="350" r="350" stroke="none"/><circle cx="350" cy="350" r="349.5" fill="none"/></g><g transform="translate(24.346 24.346)"><g transform="translate(-24.705 49.009) rotate(-3)"><g transform="translate(809.845 226.759)"><path d="M825.7,242.609a282.627,282.627,0,0,1,31.6-11.65" transform="translate(-825.699 -230.959)" fill="none" stroke="#0ba4c6" stroke-linecap="round" stroke-width="3"/></g><g transform="translate(797.934 203.186)"><path d="M816.834,228.709c1.955-4.327,2.669-7.216,1.857-9.024a1.966,1.966,0,0,0-2.775-1.178,3.269,3.269,0,0,0-1.618,2.2l-1.4-.52a4.734,4.734,0,0,1,2.611-3.148,3.41,3.41,0,0,1,4.8,1.814c.955,2.122.251,5.077-1.081,8.352.542-.314,1.21-.669,1.747-.91l2.75-1.234.658,1.465-7.1,3.189Z" transform="translate(-812.897 -206.391)" fill="#0ba4c6"/><path d="M824.322,220.046c-1.542-3.885-.875-6.335,1.333-7.213s4.382.465,5.919,4.335c1.547,3.9.89,6.417-1.3,7.288S825.871,223.945,824.322,220.046Zm5.575-2.213c-1.276-3.216-2.548-4.068-3.691-3.614s-1.485,1.947-.208,5.161c1.288,3.245,2.579,4.143,3.722,3.689S831.186,221.078,829.9,217.833Z" transform="translate(-813.633 -206.108)" fill="#0ba4c6"/><path d="M833.764,216.342c-1.419-3.93-.675-6.358,1.558-7.165s4.365.6,5.778,4.516c1.424,3.944.689,6.44-1.531,7.242C837.334,221.741,835.189,220.286,833.764,216.342Zm5.64-2.038c-1.174-3.251-2.419-4.142-3.575-3.725s-1.545,1.9-.37,5.151c1.185,3.283,2.448,4.22,3.6,3.8S840.59,217.586,839.4,214.3Z" transform="translate(-814.298 -205.856)" fill="#0ba4c6"/><path d="M843.311,212.925c-1.3-3.973-.483-6.379,1.776-7.119s4.345.734,5.639,4.691c1.3,3.988.493,6.463-1.75,7.2S844.616,216.913,843.311,212.925Zm5.7-1.866c-1.076-3.286-2.293-4.216-3.461-3.834s-1.6,1.853-.527,5.14c1.085,3.32,2.319,4.294,3.488,3.912S850.1,214.378,849.012,211.059Z" transform="translate(-814.969 -205.624)" fill="#0ba4c6"/></g></g><g transform="translate(-60.076 133.347) rotate(-8)"><g transform="translate(640.954 271.822)"><path d="M912.855,786.7a279.519,279.519,0,0,1-35.061-3.953,284.7,284.7,0,0,1-36.481-8.981C692.645,726.64,610.331,567.916,657.458,419.247a281.247,281.247,0,0,1,98.758-139.856" transform="translate(-644.181 -279.391)" fill="none" stroke="#0ba4c6" stroke-linecap="round" stroke-width="1"/><path d="M737.064,301.254a282.645,282.645,0,0,1,25.613-21.863" transform="translate(-650.642 -279.391)" fill="none" stroke="#0ba4c6" stroke-linecap="round" stroke-width="3"/><path d="M912.855,786.7a279.519,279.519,0,0,1-35.061-3.953" transform="translate(-644.181 -279.391)" fill="none" stroke="#0ba4c6" stroke-linecap="round" stroke-width="3"/></g><g transform="translate(633.198 597.859)"><g transform="translate(0 0)"><path d="M654.462,665l.771,1.465,7.189-3.792.7,1.319-7.189,3.792.979,1.854.3-.159c2.072-1.094,5.055-2.427,7.563-2.1a5.166,5.166,0,0,0-.255,1.45c-2.3-.249-4.773.926-6.642,1.912l-4.97,2.622a24.988,24.988,0,0,0-3.514-3.815l.42-1.592a27.312,27.312,0,0,1,3.312,3.68l2.536-1.339-2.446-4.637Zm.007,8.407,3.364,6.376-1.117.59-1.4-2.653c-.323.374-.687.807-.957,1.171l-.931-1.028a16.7,16.7,0,0,1,1.162-1.521L653.352,674Zm7.048-.476,3.435-1.812c.58-.306.953-.372,1.318-.1a4.408,4.408,0,0,1,1.081,1.522,4.847,4.847,0,0,0-.939.96c-.231-.472-.462-.907-.544-1.066s-.143-.165-.288-.089l-3.421,1.805,1.461,2.768-1.145.6-1.46-2.769-1.319.7,1.506,2.855-1.13.6-.841-1.595a8.169,8.169,0,0,0-1.536,1.479l-.849-.942a8.186,8.186,0,0,1,1.563-1.566l.645.7-1.053-2a19.371,19.371,0,0,0-2.478.4l-.4-1.384c.768-.09,1.572-.18,2.23-.233l-.894-1.694,1.13-.6,1.461,2.769,1.318-.7-1.353-2.565,1.145-.6Zm-.312-1.539a13.385,13.385,0,0,1,1.539-2.35l1.063.644a17.311,17.311,0,0,0-1.65,2.352Zm2.013,2.939a10.334,10.334,0,0,1,3.462.063,8.087,8.087,0,0,0-.18,1.242,6.938,6.938,0,0,0-3-.066Z" transform="translate(-636.787 -632.089)" fill="#0ba4c6"/><path d="M651.857,653.776l3.745-1.7c.717-.325,1.18-.336,1.639.122a8.119,8.119,0,0,1,1.32,2.315,5.4,5.4,0,0,0-1.121,1.138c-.334-.855-.721-1.706-.85-1.953s-.195-.272-.374-.19l-3.611,1.637c2.011,3.64,2.377,4.211,2.737,4.569-.206.183-.759.669-1.064.986a7.955,7.955,0,0,0-1.74-1.694,30.6,30.6,0,0,0-2.608-1.946,17.486,17.486,0,0,0,1.961,3.338,11.409,11.409,0,0,0-1.047.943,3.264,3.264,0,0,0-1.068-.848,18.967,18.967,0,0,0-2.86-1.348c.693,1.25,1.344,2.486,1.934,3.674a4.718,4.718,0,0,0-1.052.891,71.352,71.352,0,0,0-5.781-9.738l.68-1.515a46.884,46.884,0,0,1,3.181,4.836,26.386,26.386,0,0,1,3.746,1.756l-1.693-3.261c-.868-.525-1.786-1.043-2.686-1.481l.428-1.436a39.3,39.3,0,0,1,6.665,4.462l-2.93-5.472c-.211.528-.413,1.034-.586,1.526l-1.032-.81a22.509,22.509,0,0,1,1.987-4.463l1.165.784a11.018,11.018,0,0,0-.881,1.588Zm-.166-2.588a30.4,30.4,0,0,1,1.355-4.788l1.371.836a28.523,28.523,0,0,0-1.487,4.74Zm2.859,4.8a17.2,17.2,0,0,1,4.66,1.864,8.335,8.335,0,0,0-.376,1.628,12.082,12.082,0,0,0-4.139-1.866Z" transform="translate(-636.274 -630.957)" fill="#0ba4c6"/><path d="M642.6,632.792a8.9,8.9,0,0,0-.863.987c2.609,5.157,2.968,5.81,3.324,6.181a9.881,9.881,0,0,0-1.2.994,2.155,2.155,0,0,0-.873-.838,26.528,26.528,0,0,0-3.12-.964l1,2.564-1.283.5-1.374-3.526c-.439.364-1.052.955-1.531,1.44l-.839-1.2a15.6,15.6,0,0,1,1.515-1.576l.665.849-1.655-4.245,1.282-.5,1.566,4.015c1.078.284,2.393.634,3.417.955l-1.75-3.539c-.325.478-.653.941-.922,1.38l-.995-.879a24.659,24.659,0,0,1,2.511-3.53Zm2.678,7.769a6.085,6.085,0,0,0,1.256-.525c2.266,3.374,2.66,3.888,3,4.141a11.793,11.793,0,0,0-1.144.991,2.827,2.827,0,0,0-1.451-.788,20.275,20.275,0,0,0-2.237-.64,7.458,7.458,0,0,0,1.224,1.967,11.476,11.476,0,0,0-1.238,1.064,2.111,2.111,0,0,0-1.269-.544,20.853,20.853,0,0,0-4.933-.38l.09-1.706a25.683,25.683,0,0,1,5.233.739l-.749-1.466a16.521,16.521,0,0,0-1.99-.28l.282-1.534a32.5,32.5,0,0,1,5.424,1.279Zm2.056-9.3c-.107-.275-.45-.21-2.317.463a4.261,4.261,0,0,0,.095-1.426c2.241-.751,2.976-.668,3.38.37l.465,1.192c.459,1.175.159,1.626-1.124,2.127l-4.55,1.773-.542-1.388,4.55-1.775c.427-.167.471-.236.364-.512Zm-3.469,5.945c3.346-1.165,5.55-1.513,7.805.755a4.689,4.689,0,0,0-.836,1.329c-1.867-2.034-3.578-1.683-6.428-.7Zm5.233,1.6c1.288,1.451,2.638,3.019,3.667,4.219l-1.283.9c-.83-1.136-2.194-2.787-3.495-4.408Z" transform="translate(-635.845 -629.802)" fill="#0ba4c6"/></g></g></g><g transform="translate(67.359 -108.84) rotate(7)"><g transform="translate(1146.536 351.978)"><path d="M1206.791,365.539q6.822,11.375,12.584,23.421a282.82,282.82,0,0,1-15.639,271.623q-7.52,11.969-16.177,23.107" transform="translate(-1187.56 -365.539)" fill="none" stroke="#0ba4c6" stroke-linecap="round" stroke-width="1"/><path d="M1208.229,365.539q6.822,11.375,12.584,23.421" transform="translate(-1188.998 -365.539)" fill="none" stroke="#0ba4c6" stroke-linecap="round" stroke-width="3"/><path d="M1203.737,682.64q-7.52,11.969-16.177,23.107" transform="translate(-1187.56 -387.596)" fill="none" stroke="#0ba4c6" stroke-linecap="round" stroke-width="3"/></g><g transform="translate(1216.371 478.342)"><path d="M1267.4,515.275c-.868.033-1.3-.165-1.553-.714a8.242,8.242,0,0,1-.369-2.874,5.115,5.115,0,0,0,1.392-.527c0,.934.055,1.933.065,2.212.028.294.13.389.408.379l11.026-.411-.34-9.125-4,.149c-2.654.1-6.465-.038-9.006-1.732a5.985,5.985,0,0,0,.936-1.282c2.339,1.554,5.589,1.6,8.014,1.506l5.424-.2.452,12.157Zm-.084-7.954-.917.034-.051-1.376,5.243-.2.234,6.275-4.325.161Zm3.146-.117-1.949.073.13,3.49,1.949-.073Zm3.625.849,1.36-.05-.1-2.7,1.2-.045.1,2.7,1.262-.047.054,1.442-1.263.047.107,2.851-1.2.045-.107-2.851-1.36.051.12,3.211-1.228.046-.288-7.717,1.23-.046Z" transform="translate(-1262.784 -501.35)" fill="#0ba4c6"/><path d="M1268.86,522.5c-.186.291-.47.631-.789,1.117a8.466,8.466,0,0,0-.86,4.427,51.169,51.169,0,0,0,.276,6.118,7.082,7.082,0,0,0-1.7-.487c-.063-1.165-.114-4.033-.087-5.705a8.678,8.678,0,0,1,.979-4.687c.436-.681,1.02-1.246,1.025-1.606.008-.508-1.045-1.246-2.114-1.968l1.509-1.09a7.507,7.507,0,0,1,1.9,2.358l4.751.078.034-2.015,1.491.025-.058,3.539Zm7.419,6.186c-3.337-.382-6.173-1.363-7.993-4.229a4.414,4.414,0,0,0,1.149-1.063c1.531,2.533,3.975,3.392,6.87,3.7l.051-3.1,1.475.024-.053,3.211c.836.063,1.719.094,2.6.125l-.026,1.623q-1.326-.046-2.6-.141l-.077,4.67s-.491-.008-.7-.029c-5.387-.285-7.366-.5-8.045-1.083a1.736,1.736,0,0,1-.649-1.354,17.75,17.75,0,0,1,.021-2.344,3.814,3.814,0,0,0,1.566-.5c-.1.949-.112,1.818-.118,2.194a.751.751,0,0,0,.2.659c.4.384,2.089.609,6.28.841Zm.568-6.53a20.789,20.789,0,0,0,2.857-2.378l.832,1.194a21.788,21.788,0,0,1-2.744,2.462Z" transform="translate(-1262.824 -502.551)" fill="#0ba4c6"/><path d="M1270.689,545.119l-4.105-.287c-.784-.056-1.2-.266-1.385-.888a8.2,8.2,0,0,1-.059-2.667,5.331,5.331,0,0,0,1.529-.468c-.114.914-.179,1.846-.182,2.125,0,.262.043.331.239.345l3.958.277c-.037-4.16-.088-4.837-.234-5.325.267-.063.984-.226,1.4-.361a7.98,7.98,0,0,0,.725,2.319,30.822,30.822,0,0,0,1.37,2.957,17.409,17.409,0,0,0-.138-3.872,11.359,11.359,0,0,0,1.371-.331,3.273,3.273,0,0,0,.537,1.254,18.942,18.942,0,0,0,1.875,2.548c-.014-1.431,0-2.827.046-4.154a4.731,4.731,0,0,0,1.351-.284,71.334,71.334,0,0,0,.454,11.324l-1.32,1.009a46.811,46.811,0,0,1-.5-5.772,26.6,26.6,0,0,1-2.461-3.329l-.062,3.678c.513.874,1.076,1.768,1.659,2.581l-1.061,1.06a39.249,39.249,0,0,1-3.741-7.1l-.026,6.212c.436-.365.855-.713,1.242-1.064l.524,1.2a22.579,22.579,0,0,1-3.875,2.982l-.653-1.246a10.9,10.9,0,0,0,1.532-.977Zm-1.087,2.356a30.115,30.115,0,0,1-3.472,3.569l-.807-1.387a28.552,28.552,0,0,0,3.563-3.465Zm-.232-5.587a17.282,17.282,0,0,1-3.213-3.859,8.426,8.426,0,0,0,1.108-1.253,12.049,12.049,0,0,0,2.753,3.612Z" transform="translate(-1262.787 -503.814)" fill="#0ba4c6"/><path d="M1263.936,567.038c-.036.292.3.4,2.258.7a4.209,4.209,0,0,0-.763,1.208c-2.327-.408-2.935-.831-2.8-1.937l.159-1.267c.158-1.252.635-1.505,2-1.333l4.845.609-.186,1.479-4.844-.61c-.455-.057-.527-.016-.564.276Zm5.882-3.57c-3.495-.572-5.6-1.315-6.5-4.384a4.721,4.721,0,0,0,1.369-.769c.671,2.677,2.34,3.184,5.318,3.674Zm-3.836-3.9c-.439-1.888-.878-3.909-1.212-5.453l1.557-.183c.189,1.394.6,3.494.971,5.538Zm4.193.28a6.018,6.018,0,0,0-1.354-.137c-.382-4.045-.484-4.686-.667-5.072a11.658,11.658,0,0,0,1.479-.326,2.819,2.819,0,0,0,.9,1.384,20.9,20.9,0,0,0,1.661,1.629,7.547,7.547,0,0,0-.138-2.313,11.726,11.726,0,0,0,1.6-.343c.043.318.361.672.855,1.081a20.869,20.869,0,0,0,4.153,2.685l-.893,1.457a25.715,25.715,0,0,1-4.245-3.143l-.042,1.645a16.681,16.681,0,0,0,1.617,1.195l-.978,1.214a32.448,32.448,0,0,1-4.157-3.71Zm-1.349,8.1a9.048,9.048,0,0,0,1.229-.456c.166-5.776.159-6.52.024-7.016a9.772,9.772,0,0,0,1.524-.3,2.151,2.151,0,0,0,.367,1.152,26.963,26.963,0,0,0,2.282,2.335l.343-2.732,1.365.172-.472,3.755c.559-.112,1.38-.339,2.033-.537l.164,1.457a15.871,15.871,0,0,1-2.082.662l-.18-1.064-.568,4.52-1.366-.172.538-4.274c-.812-.764-1.8-1.7-2.547-2.468l-.15,3.944c.513-.266,1.023-.515,1.469-.773l.454,1.246a24.584,24.584,0,0,1-3.89,1.906Z" transform="translate(-1262.617 -505.007)" fill="#0ba4c6"/></g></g><g transform="translate(88.997 -138.348) rotate(9)"><g transform="translate(1064.471 725.119)"><path d="M1124.844,766.576q-10.7,7.831-22.175,14.668-1.647.981-3.309,1.941" transform="translate(-1099.36 -766.576)" fill="none" stroke="#0ba4c6" stroke-linecap="round" stroke-width="3"/></g><g transform="translate(1059.182 725.893)"><g transform="translate(0)"><path d="M1144.761,783.7a19.272,19.272,0,0,1-2.361-5.768,8.306,8.306,0,0,0-4.445-.608,5.343,5.343,0,0,0,.062-1.545,9.123,9.123,0,0,1,4.182.562,10.245,10.245,0,0,1,.972-4.856,6.968,6.968,0,0,0,1.4.489,8.469,8.469,0,0,0-.933,5.012,20.012,20.012,0,0,1,3.455,2.3,10.46,10.46,0,0,1-.331-2.051,7.271,7.271,0,0,0,1.478.055c.051,2.143,1.144,4.742,2.611,7.236l-1.219.7c-.482-.83-.915-1.678-1.292-2.508l-3.54,2.764-.878-1.125Zm2.908-2.268a22.12,22.12,0,0,0-3.672-2.708,20.584,20.584,0,0,0,1.876,4.109Zm-2.556-9.964a11.216,11.216,0,0,0,1.605-.129,10.862,10.862,0,0,1,1.966-3.927,4.347,4.347,0,0,0,1.25.481,10.291,10.291,0,0,0-1.824,3.232,24.307,24.307,0,0,0,2.585-.6,18.948,18.948,0,0,0,.211,1.9l1.188-.928.768.982-1.681,1.312a8.229,8.229,0,0,0,.3,1.053l-1.235.629c-.073-.253-.134-.517-.206-.8l-1.9,1.483-.154.2-.848.245a8.672,8.672,0,0,1-.636-3.932c-.546.073-1.07.149-1.492.166Zm4.631,1.856c-.074-.442-.138-.87-.2-1.263-.568.153-1.155.279-1.755.392a6.82,6.82,0,0,0,.1,2.314Zm2.612,3.265a10.871,10.871,0,0,1,.8-3.347,4.913,4.913,0,0,0,1.34.41,8.174,8.174,0,0,0-.986,3.64l2.184-1.706.746.957-2.559,2,1.826,2.339-1.1.858-1.826-2.339-2.547,1.987-.745-.957,2.21-1.724c-.926.119-2.334.26-2.747.291l-.019-1.358c.542.057,1.613.072,2.517.055l-1.252-1.6,1.1-.858Zm-.545,6.31a21.944,21.944,0,0,1-.1-2.5l1.047-.257a15.808,15.808,0,0,0,.395,2.4Zm3.484-5.422a7.728,7.728,0,0,0,2.064,1.072l-.6,1.048a7.574,7.574,0,0,1-2.072-1Z" transform="translate(-1096.756 -767.408)" fill="#0ba4c6"/><path d="M1129.977,789.885l-1.041-1.492-2.485,1.733-2.943-4.22,1.129-.787.3.429,3.724-2.6-.329-.47,1.089-.759,2.973,4.26-2.285,1.594,1.041,1.492,2.391-1.668a14.918,14.918,0,0,1-2.412-6.868,6.156,6.156,0,0,0,1.531-.011c.034,2.973,1.94,5.96,3.411,8.071l2.813,4.032-7.137,4.977-2.53-3.629,2.431-1.7-.938-1.344-2.848,1.987-.732-1.049Zm-3.129-1.594,3.724-2.6-1.211-1.734-3.722,2.6Zm10.064,4.088-1.012-1.451-4.744,3.309,1.012,1.451Zm-5.034-2.263.938,1.344,2.325-1.621-.282-.4c-.207-.3-.422-.6-.642-.949Zm4.227-5.625L1133.668,781c-.431-.618-.545-1.038-.312-1.479a4.632,4.632,0,0,1,1.578-1.461,4.835,4.835,0,0,0,1.143.921c-.547.362-1.045.709-1.193.812-.174.122-.2.221-.073.41l2.185,3.132,1.142-1.456,1.127,1.013c-.4.457-.869,1.046-1.4,1.692l1.866,2.675,1.558-1.089.807,1.157-1.559,1.087,1.809,2.595-1.144.8-1.809-2.593-1.438,1-.806-1.156,1.438-1-1.64-2.352-1.027,1.277-.963-1.007Z" transform="translate(-1095.751 -768.149)" fill="#0ba4c6"/><path d="M1109.883,797.69l-.8-1.3,12.47-7.736.8,1.3-5.447,3.38,4.736,7.635,4.71-2.923.829,1.338-11.006,6.828-.83-1.336,4.848-3.01-4.736-7.634Z" transform="translate(-1094.747 -768.886)" fill="#0ba4c6"/><path d="M1099.021,804.614a40.391,40.391,0,0,1-5.344.2l.5-1.543a36.306,36.306,0,0,0,5.4-.036l-.306,1.249,4.6-2.516-1.574-.147a20.039,20.039,0,0,1,3.056-4.658,10.027,10.027,0,0,0,1.5.451,15.833,15.833,0,0,0-2.906,4.315l3.853-2.106.66,1.206-2.085,1.14,4.48,8.194-8.826,4.826-4.48-8.193-1.97,1.077-.66-1.208Zm6.008-1.717-6.1,3.333.6,1.093,6.1-3.333Zm1.706,3.12-.566-1.035-6.1,3.332.567,1.036Zm-5,5.331,6.1-3.334-.551-1.006-6.094,3.333Zm7.188-1.334-.558-1.023-6.1,3.334.558,1.022Z" transform="translate(-1093.676 -769.477)" fill="#0ba4c6"/></g></g></g><g transform="matrix(1, 0.017, -0.017, 1, 8.801, -16.041)"><g transform="translate(913.836 214.38)"><path d="M937.464,217.831c9.5-.332,18.9-.194,28.352.407a281.941,281.941,0,0,1,176.323,77.186" transform="translate(-937.464 -217.654)" fill="none" stroke="#0ba4c6" stroke-linecap="round" stroke-width="1"/><path d="M1136.891,283.4c6.5,5.149,12.944,10.734,19.121,16.6.931.885,1.86,1.779,2.98,2.876" transform="translate(-951.336 -222.228)" fill="none" stroke="#0ba4c6" stroke-linecap="round" stroke-width="3"/><path d="M937.464,217.831c9.5-.332,18.9-.194,28.352.407" transform="translate(-937.464 -217.654)" fill="none" stroke="#0ba4c6" stroke-linecap="round" stroke-width="3"/></g><g transform="translate(1005.747 200.02)"><g transform="translate(0)"><path d="M1050.575,217.987l-.445,1.408-13.884-4.386.446-1.408,6.191,1.957,1.136-3.6-4.456-1.407.439-1.391,4.456,1.407.989-3.126-3.471-1.1a14.2,14.2,0,0,1-2.313,1.933,9.8,9.8,0,0,0-1.052-1.3,14.161,14.161,0,0,0,4.618-4.765l1.392.819c-.487.722-1.02,1.431-1.554,2.087l2.829.894.918-2.908,1.5.474-.918,2.908,5.441,1.719-.45,1.423-5.439-1.719-.988,3.126,4.861,1.535-.439,1.393-4.861-1.537-1.136,3.6Z" transform="translate(-1036.246 -202.221)" fill="#0ba4c6"/><path d="M1068.6,218.922l-10.86-4.085-.271.721c-.7,1.856-2,4.482-4.046,5.777a6.635,6.635,0,0,0-.8-1.456c1.8-1.16,2.775-3.333,3.369-4.912l.785-2.085,3.3,1.24a12.891,12.891,0,0,0-.422-2.558l1.434-.039a11.525,11.525,0,0,1,.521,2.614l-1.272.081,3.8,1.43a17.415,17.415,0,0,0,2.126-2.07l1.39,1.1c-.705.523-1.426,1.091-2.061,1.518l3.529,1.327Zm1.134-4.179-12.147-4.568.513-1.365,5.506,2.07a8.977,8.977,0,0,0-.295-1.686l1.586.159a9.656,9.656,0,0,1,.425,2.173l4.923,1.852Z" transform="translate(-1037.385 -202.679)" fill="#0ba4c6"/><path d="M1075.3,225a17.261,17.261,0,0,1-4.714,1.727,8.5,8.5,0,0,0-.808-1.465,12.072,12.072,0,0,0,4.329-1.377Zm3.486-.154-1.652,3.768c-.316.721-.653,1.039-1.3,1.006a8.2,8.2,0,0,1-2.532-.842,5.311,5.311,0,0,0,.074-1.6c.822.414,1.678.79,1.939.887s.328.072.406-.109l1.594-3.633c-3.931-1.366-4.585-1.546-5.092-1.572.03-.273.118-1,.133-1.446a7.951,7.951,0,0,0,2.426.1,31.043,31.043,0,0,0,3.246-.295,17.36,17.36,0,0,0-3.693-1.173,11.775,11.775,0,0,0,.151-1.4,3.254,3.254,0,0,0,1.361-.083,18.854,18.854,0,0,0,3.03-.908c-1.352-.468-2.661-.953-3.9-1.441a4.8,4.8,0,0,0,.187-1.368,71.116,71.116,0,0,0,10.816,3.384l.505,1.583a46.748,46.748,0,0,1-5.6-1.473,26.505,26.505,0,0,1-3.964,1.2l3.442,1.3c1-.19,2.028-.418,2.99-.694l.642,1.356a39.213,39.213,0,0,1-7.945,1.133l5.84,2.115c-.2-.533-.383-1.045-.585-1.529l1.31-.087a22.487,22.487,0,0,1,1.5,4.652l-1.394.2a10.883,10.883,0,0,0-.4-1.772Zm1.853,1.816a30.229,30.229,0,0,1,2.192,4.471l-1.578.292a28.488,28.488,0,0,0-2.063-4.522Z" transform="translate(-1038.578 -203.091)" fill="#0ba4c6"/><path d="M1090.822,234.067c-1.926-.221-3.976-.488-5.545-.693l.353-1.529c1.376.291,3.491.609,5.541.948Zm1.674-3.854a6.121,6.121,0,0,0-.585,1.229c-3.936-1-4.574-1.121-5-1.079a11.447,11.447,0,0,0,.191-1.5,2.819,2.819,0,0,0,1.607-.381,20.358,20.358,0,0,0,2.094-1.015,7.533,7.533,0,0,0-2.227-.649,11.2,11.2,0,0,0,.213-1.618,2.114,2.114,0,0,0,1.308-.442,20.849,20.849,0,0,0,3.926-3.006l1.072,1.331a25.712,25.712,0,0,1-4.389,2.939l1.536.594a16.589,16.589,0,0,0,1.668-1.122l.814,1.331a32.466,32.466,0,0,1-4.892,2.666Zm3.289,1.555c-1.713,3.1-3.122,4.828-6.315,4.645a4.7,4.7,0,0,0-.263-1.547c2.746.27,3.785-1.132,5.249-3.77Zm3.887,2.443a8.991,8.991,0,0,0-.017-1.312c-5.383-2.1-6.084-2.343-6.6-2.383a9.9,9.9,0,0,0,.227-1.538,2.138,2.138,0,0,0,1.209.042,26.6,26.6,0,0,0,2.965-1.363L1095,226.415l.621-1.228L1099,226.9c.084-.564.146-1.412.179-2.1l1.428.338a15.869,15.869,0,0,1-.078,2.183l-1.062-.189,4.065,2.057-.621,1.227-3.845-1.945c-.991.508-2.2,1.125-3.18,1.568l3.665,1.468c-.078-.572-.141-1.137-.234-1.643l1.325-.008a24.585,24.585,0,0,1,.487,4.3Zm-2.5,4.3c.263.133.475-.144,1.415-1.891a4.267,4.267,0,0,0,.881,1.125c-1.167,2.054-1.77,2.482-2.763,1.979l-1.142-.576c-1.125-.57-1.2-1.1-.582-2.334l2.2-4.356,1.33.673-2.2,4.356c-.208.41-.193.491.071.624Z" transform="translate(-1039.656 -203.579)" fill="#0ba4c6"/></g></g></g></g></g></svg>